Coordinates
version=1
nRows=10
nColumns=40
inDegrees=yes

Units are S.I. units (second, meters, Newtons, ...)
Angles are in degrees.

endheader
time	pelvis_tilt	pelvis_list	pelvis_rotation	pelvis_tx	pelvis_ty	pelvis_tz	hip_flexion_r	hip_adduction_r	hip_rotation_r	knee_angle_r	knee_angle_r_beta	ankle_angle_r	subtalar_angle_r	mtp_angle_r	hip_flexion_l	hip_adduction_l	hip_rotation_l	knee_angle_l	knee_angle_l_beta	ankle_angle_l	subtalar_angle_l	mtp_angle_l	lumbar_extension	lumbar_bending	lumbar_rotation	arm_flex_r	arm_add_r	arm_rot_r	elbow_flex_r	pro_sup_r	wrist_flex_r	wrist_dev_r	arm_flex_l	arm_add_l	arm_rot_l	elbow_flex_l	pro_sup_l	wrist_flex_l	wrist_dev_l
     55.76500000	     -4.10170905	     -2.13393586	     -2.76791654	      1.03728009	      0.92573558	      0.44135780	     31.53564048	     -4.57810338	    -10.83919052	     21.49606994	     21.49606994	      3.87900535	      1.64246994	      7.14431894	      0.91202271	     -1.01598505	    -10.21732033	     10.97011400	     10.97011400	     15.56626957	     -4.60986197	     -7.07414845	    -12.08851258	      4.63008480	      0.78047123	    -19.32083013	    -13.34712793	     -8.84642314	     24.62395403	     46.97446840	      0.00000000	      0.00000000	     32.99201333	    -25.44451334	      7.31643905	     81.93068623	     46.94786322	      0.00000000	      0.00000000
     55.77721429	     -4.09543476	     -1.98129800	     -2.77875247	      1.03853304	      0.92402527	      0.44306014	     30.44889877	     -4.25525058	    -11.65064294	     20.03300530	     20.03300530	      3.87057039	      2.37677044	      7.61425754	      0.26750551	     -0.92932162	    -10.19002604	     10.93544436	     10.93544436	     16.06384362	     -4.56890468	     -7.23946991	    -11.77920182	      4.39456488	      0.80414264	    -20.52506943	    -13.17049010	     -8.88799585	     24.61607609	     46.95960921	      0.00000000	      0.00000000	     33.11331893	    -25.39937134	      7.14128485	     82.99090911	     46.99196102	      0.00000000	      0.00000000
     55.78942857	     -4.07271108	     -1.85272954	     -2.83440297	      1.03988025	      0.92238212	      0.44496907	     29.49143036	     -3.96840153	    -12.46977344	     19.17386988	     19.17386988	      3.82514447	      3.19269333	      7.65630000	     -0.40050202	     -0.88530785	    -10.24900671	     10.92014325	     10.92014325	     16.61903452	     -4.41841117	     -7.25606006	    -11.53457510	      4.16791148	      0.94478022	    -21.64399681	    -12.95506338	     -8.95487049	     24.84840716	     46.93477764	      0.00000000	      0.00000000	     33.01883286	    -25.29983567	      6.91197475	     84.45028206	     47.04998756	      0.00000000	      0.00000000
     55.80164286	     -4.10099402	     -1.77793303	     -2.90210635	      1.04124739	      0.92078396	      0.44712952	     28.66353169	     -3.62474060	    -13.03242479	     18.65176443	     18.65176443	      3.30665186	      3.63379132	      6.26564324	     -0.89631033	     -0.96516726	    -10.44140298	     11.18088515	     11.18088515	     17.54847606	     -3.93496387	     -6.57320399	    -11.26869915	      3.98915200	      0.70502677	    -22.53674112	    -12.84801943	     -9.04548236	     25.91882729	     46.85829685	      0.00000000	      0.00000000	     32.23630842	    -25.55934869	      6.07414291	     86.58138698	     47.19778739	      0.00000000	      0.00000000
     55.81385714	     -4.16024146	     -1.86102699	     -3.01539975	      1.04252372	      0.91943444	      0.44951697	     27.96129762	     -3.11379768	    -13.29011949	     18.45761427	     18.45761427	      3.11892029	      3.70693826	      5.85557882	     -1.35382148	     -1.20048648	    -10.46797316	     11.41103249	     11.41103249	     18.05399575	     -4.06823145	     -6.46335891	    -10.97140192	      3.99520646	      1.04014631	    -23.05968245	    -12.63014730	     -8.95059464	     25.68452802	     46.85041602	      0.00000000	      0.00000000	     32.04395767	    -25.20415664	      5.95911162	     87.32621607	     47.22972706	      0.00000000	      0.00000000
     55.82607143	     -4.21958300	     -1.95979248	     -3.11315466	      1.04375425	      0.91829780	      0.45206900	     27.25850391	     -2.58250178	    -13.24211974	     18.23071516	     18.23071516	      1.83868989	      3.20676182	      2.06617944	     -1.63483094	     -1.55629785	    -10.83435252	     12.06481994	     12.06481994	     19.37223444	     -3.33359313	     -4.76430988	    -10.72575234	      3.98646816	      0.75778353	    -22.95097149	    -12.59217073	     -8.59296397	     25.50911117	     46.79982220	      0.00000000	      0.00000000	     30.92254107	    -25.27835732	      4.81331219	     89.08644282	     47.40673157	      0.00000000	      0.00000000
     55.83828571	     -4.27009257	     -2.17506930	     -3.21746793	      1.04482478	      0.91751904	      0.45467046	     26.80801137	     -2.06196695	    -13.17395287	     18.61013666	     18.61013666	      1.93244481	      2.97763799	      1.73429228	     -2.02422269	     -1.96149219	    -10.79140137	     12.41298466	     12.41298466	     19.70050090	     -3.60637694	     -4.71399724	    -10.53004237	      4.13584640	      1.09222185	    -22.95840804	    -12.40304599	     -8.50699714	     25.39392019	     46.79517124	      0.00000000	      0.00000000	     30.52865477	    -24.94238716	      4.82980280	     89.39803000	     47.41569998	      0.00000000	      0.00000000
     55.85050000	     -4.37638502	     -2.45398192	     -3.30586948	      1.04568340	      0.91701431	      0.45744584	     26.36518757	     -1.37643257	    -12.55892064	     18.73876276	     18.73876276	      1.24972000	      1.68679793	     -0.70478449	     -2.07006174	     -2.56728959	    -11.08995675	     13.36695698	     13.36695698	     20.79504036	     -3.20480541	     -3.12961871	    -10.36054556	      4.33655918	      0.89927362	    -22.12464047	    -12.35516761	     -8.06108571	     24.72925337	     46.77882101	      0.00000000	      0.00000000	     29.24143804	    -24.76443616	      3.60084489	     90.83160497	     47.56895849	      0.00000000	      0.00000000
     55.86271429	     -4.47155252	     -2.76348948	     -3.36506693	      1.04634973	      0.91684047	      0.46008544	     26.09815835	     -0.84072897	    -12.28009028	     19.26110511	     19.26110511	      1.52106695	      1.17082699	     -1.15939611	     -2.11981413	     -3.14854986	    -11.01542087	     14.20841999	     14.20841999	     21.07890244	     -3.61405037	     -2.93563820	    -10.23074885	      4.59547383	      1.25621374	    -21.61400242	    -12.17660758	     -7.88807604	     24.63822390	     46.76977809	      0.00000000	      0.00000000	     28.60273030	    -24.25303424	      3.53226752	     91.15071110	     47.58850016	      0.00000000	      0.00000000
     55.87492857	     -4.53782053	     -3.12048387	     -3.40004912	      1.04694702	      0.91711932	      0.46287772	     25.74925433	     -0.18793685	    -11.68576735	     19.60813017	     19.60813017	      1.68823061	      0.05848154	     -1.85881043	     -2.06589176	     -3.87871591	    -11.22931177	     15.33871911	     15.33871911	     21.62389327	     -3.49570518	     -2.04018487	    -10.17596927	      4.88747061	      1.10928931	    -20.41206101	    -12.14449688	     -7.46012358	     24.18089316	     46.75862933	      0.00000000	      0.00000000	     27.32072621	    -23.92058268	      2.62911194	     91.71484491	     47.68327308	      0.00000000	      0.00000000
